PathFileType	4	(X/Y/Z)	5_coords_data.trc
DataRate	CameraRate	NumFrames	NumMarkers	Units	OrigDataRate	OrigDataStartFrame	OrigNumFrames
30.0	30.0	9	21	m	30.0	58	77
Frame#	Time	THUMB_TIP	THUMB_IP	THUMB_MCP	THUMB_CMC	INDEX_TIP	INDEX_DIP	INDEX_PIP	INDEX_MCP	MIDDLE_TIP	MIDDLE_DIP	MIDDLE_PIP	MIDDLE_MCP	RING_TIP	RING_DIP	RING_PIP	RING_MCP	PINKY_TIP	PINKY_DIP	PINKY_PIP	PINKY_MCP	WRIST
X1	Y1	Z1	X2	Y2	Z2	X3	Y3	Z3	X4	Y4	Z4	X5	Y5	Z5	X6	Y6	Z6	X7	Y7	Z7	X8	Y8	Z8	X9	Y9	Z9	X10	Y10	Z10	X11	Y11	Z11	X12	Y12	Z12	X13	Y13	Z13	X14	Y14	Z14	X15	Y15	Z15	X16	Y16	Z16	X17	Y17	Z17	X18	Y18	Z18	X19	Y19	Z19	X20	Y20	Z20	X21	Y21	Z21
56	1.8999999999999915	0.49860667516626844	0.011451597281447734	-0.16134106192355285	0.49009227045094306	0.003822408212979189	-0.1414086665205611	0.4677565116790692	-0.0010011857216762898	-0.12027417287537956	0.4688812830908835	-0.01933543369411983	-0.07962346266564133	0.5838305519540016	0.03574811392741717	-0.13859161042801088	0.5681710134795456	0.038051246946506856	-0.12978965422138194	0.5461372108562614	0.04010629497659646	-0.11786077529030968	0.5088891082290664	0.02502963845981887	-0.10375725186709828	0.6055217642589741	0.03719161460853315	-0.11637987464076689	0.5882453433159738	0.035458296070870254	-0.11123003131817394	0.5609432105061758	0.03374209013974805	-0.10117728387092656	0.520339834842515	0.023160953675336327	-0.08582953625646736	0.6074661440002037	0.02994748303257344	-0.09349516293537455	0.5907372626730014	0.029093634996823714	-0.08683066947583626	0.5673285475310875	0.02833094042908635	-0.07836719906464686	0.5294880317631161	0.016220506843672933	-0.07087362856806739	0.602779370993824	0.017207721309496327	-0.06788134418736239	0.5863151811036422	0.015844517535089753	-0.06340115147616361	0.5658869078107164	0.012979749822556785	-0.05949080939103096	0.5317662580051185	0.0015432657913816428	-0.057067683135873765	0.462283081001861	-0.023011742144276925	-0.051989820119431
57	1.9333333333333247	0.4964882356834447	0.011774965269699234	-0.16209735734854552	0.48962258073880294	0.0036345467973021295	-0.1417357176975897	0.4676626753344961	-0.0010508823034185433	-0.12018045595536041	0.46902008809597306	-0.019568285649842476	-0.079619967744531	0.5851128266264753	0.04156600902240182	-0.13675999516240048	0.5689166856133288	0.04151762840771167	-0.12865551025598038	0.5463689452255784	0.040601923530392825	-0.11757531526743123	0.5095915089825802	0.023695808878191005	-0.10433750711204472	0.6061295348865697	0.04272073522042885	-0.11382060707056155	0.5889034267208452	0.03908240176434097	-0.10957517103582157	0.5615129451000022	0.03438542931087585	-0.10079396859255382	0.5211294430746903	0.02150912387725057	-0.08666876262762567	0.6078869013305654	0.035151346239157166	-0.09138739633690623	0.5910469111977633	0.032135744442216674	-0.08570225094479697	0.5675357072989957	0.028549899333961237	-0.07831679326837794	0.5301738747114703	0.014475171459185643	-0.07193585799580704	0.6025368186682637	0.0210443128141794	-0.06472203512563401	0.5860227157579869	0.017954815514021116	-0.06144493099224138	0.5657010086759026	0.013373767712641094	-0.058826870391064934	0.5321659103636304	0.00011252160560515367	-0.058178808762150924	0.462283081001861	-0.023011742144276925	-0.051989820119430985
58	1.966666666666658	0.4947557401147429	0.011753350694482023	-0.1627461085452837	0.48910986468135154	0.0032143984136805415	-0.14217403075676593	0.46752713023860426	-0.0012991344168531427	-0.12020510735661863	0.4690681036426083	-0.019777857679268873	-0.07963353864700116	0.585635499845692	0.04567484200945193	-0.1351950119643609	0.5691870761191506	0.04379436010283155	-0.12785245486815633	0.5464300231293979	0.040613009899028274	-0.11765415191607903	0.5099994618834757	0.0225942138683487	-0.10493513894683183	0.606193760793134	0.04626563267073591	-0.1118509856770393	0.5891447529850264	0.04119466441518482	-0.10844267029986528	0.5618447959069499	0.034512375887063684	-0.10073106128733555	0.5216740978900252	0.020088226766023953	-0.08752474219505818	0.6077483189973253	0.038553806679691216	-0.0899929449652567	0.591029634828141	0.03386910371373497	-0.08514122797311577	0.5676442850619833	0.02832020168475058	-0.07862086896557632	0.5306450550948667	0.013031373757443343	-0.0729614028733003	0.6021315334467255	0.023136887558982244	-0.0625896732289618	0.5857108650735732	0.018892780469765835	-0.060276838346352196	0.5655526458210024	0.013269123902944546	-0.05859377495368702	0.5324166679469604	-0.0009625923773730616	-0.05918426038750135	0.4622830810018609	-0.023011742144276925	-0.05198982011943097
59	1.9999999999999911	0.49331503300087765	0.011599071205267708	-0.16328736727883297	0.4885278079472781	0.0027584739153692084	-0.14262517194910024	0.46731182217434364	-0.0015706617952301327	-0.1202653747299426	0.46902842114500176	-0.019970739841526086	-0.07966512330382264	0.5856867675567489	0.048275086914872034	-0.13417151086082152	0.5691538038662391	0.04507419196653761	-0.1275070241485521	0.5463481521855302	0.04034560109299312	-0.11804380520525351	0.5101364136804191	0.021754860524936914	-0.10552460181331663	0.6060400974833339	0.048055987951047485	-0.1107636620097362	0.5891689572223174	0.0420878728779841	-0.10798045724404184	0.5619657774140758	0.03428675774354606	-0.10101345207828286	0.5219224402897439	0.019057300233767283	-0.08833501775440242	0.6074775183911769	0.040350323251409415	-0.08942088260574231	0.5909553319414395	0.0345078418093443	-0.08519208070458445	0.5677238492413855	0.027792040424984177	-0.0792442910039542	0.5308977297528884	0.011984616849153418	-0.07388862883077596	0.6019293415282334	0.023840585710674045	-0.061520223669526794	0.5856097471399548	0.01894457742437594	-0.059877073687764126	0.5655618426102609	0.012801899555766716	-0.058799552657446436	0.5325363273244269	-0.0016444468602884177	-0.06002505921903015	0.4622830810018609	-0.023011742144276925	-0.051989820119431
60	2.0333333333333243	0.49222617149552805	0.011330753983856301	-0.1637351242349102	0.4879590773151534	0.002326032129756017	-0.14302988597049748	0.4670602593148887	-0.0018799543864488344	-0.12035017954344435	0.46897159257079823	-0.02014444005551097	-0.07969743832677517	0.5855191830168134	0.04966091161540387	-0.13375625322706175	0.5689855569490101	0.045565836510254476	-0.12760242767434707	0.5461919608719449	0.03992442573569499	-0.11862265622133765	0.5100827279851881	0.02116381191039729	-0.10606085845079535	0.6058781394066488	0.04858823863927858	-0.1105812881068279	0.5891055499391271	0.042209336433065126	-0.10813387126502425	0.5619589615159247	0.033892032269740247	-0.10155399752489866	0.5219837682354425	0.01836295203320759	-0.08902485109765083	0.6072901623682934	0.040938114242882295	-0.08958551907239858	0.5909257468532417	0.034442794644695574	-0.08571037673073573	0.5677927691690674	0.027158385082031056	-0.08005505182522757	0.5309857773410986	0.011325790256822454	-0.07464255446480192	0.6019596124031991	0.023719342960786594	-0.06139430275197896	0.5857000581592373	0.018522169267936484	-0.06012297219149762	0.5656901028963093	0.01221414638789109	-0.05933394955529722	0.5325630543526332	-0.001987768995237338	-0.060671000502490205	0.4622830810018609	-0.023011742144276925	-0.051989820119430985
61	2.0666666666666575	0.491387888325471	0.011026843368530992	-0.16409513432927925	0.48742443161401927	0.001956150595101125	-0.143358366415583	0.466771005771758	-0.0021668628770952214	-0.12043988564380637	0.4688914248431283	-0.020281486282310635	-0.07973049800595321	0.5852401004045366	0.05023210756588309	-0.1338909831079706	0.5687390250500972	0.04559289824493207	-0.1280435692331438	0.5459785882286151	0.03947769810844004	-0.11929275921429545	0.5099025971546839	0.02079979386959785	-0.10651407167299201	0.605706396951679	0.04849504399239085	-0.11104231822453267	0.5889702694784967	0.04198418174294971	-0.10869482808180653	0.561843674066429	0.03353495989219857	-0.10220113718472942	0.5219142902349787	0.017978215948369125	-0.08956072794662177	0.6071628928471486	0.04093429618867139	-0.09018774903218908	0.5908832917028513	0.03416232664647545	-0.08643075354348205	0.567787805879395	0.026717544351728684	-0.08083131337839797	0.5309707194391469	0.010988517436384848	-0.0751903300999528	0.6020225862058435	0.023479250769554483	-0.061752867208589995	0.5857788871450553	0.018201558960578956	-0.06061787382005329	0.5657634099416999	0.011903541957481223	-0.05989146267568958	0.5325411511116789	-0.002087618651955947	-0.06107990452619097	0.462283081001861	-0.023011742144276925	-0.051989820119430985
62	2.0999999999999908	0.49080464881575403	0.010725308774595876	-0.1643869561653752	0.4869801210287148	0.0016889405605687857	-0.14360915462847795	0.46650377111556607	-0.0024044561730289793	-0.12052705772599397	0.4687969131569457	-0.020371144818589038	-0.07976151346749588	0.5848684422472618	0.0504242727217627	-0.13439741076277137	0.5684088430071172	0.045492264719221076	-0.1286740472484821	0.5456949550037221	0.03915244190801559	-0.11996222932730492	0.5096603122860335	0.020605587595764474	-0.10687961440028558	0.6054859493987167	0.04820793551382219	-0.11184908694120618	0.5887548901130603	0.04169948184564287	-0.109459173547584	0.5616378028864837	0.03328809453217074	-0.10287725180625323	0.5217547932607426	0.017825884558865912	-0.08997711510409084	0.6070445582352054	0.04071501921410392	-0.09101216527790139	0.5907896548120525	0.033908042349045986	-0.08721174679271623	0.5677044106927838	0.02649640217750282	-0.08152676016816414	0.530876248631589	0.01090115093454469	-0.07559418468500378	0.601965402572033	0.0235342908876206	-0.06230363259508735	0.5857192401345421	0.018270469116939303	-0.06113985150692894	0.5656980800691304	0.011998176425467855	-0.060350223095790786	0.532486769946205	-0.002032367878451069	-0.06136814129223228	0.462283081001861	-0.023011742144276925	-0.051989820119430985
63	2.133333333333324	0.49039192647213514	0.010451431113695508	-0.16459010413754974	0.4866337660184372	0.001470203155188754	-0.14377631605460822	0.4662606052232847	-0.002585685776654967	-0.12059649543003458	0.4687247320109946	-0.020420331918325263	-0.0797829746780154	0.5844467596748569	0.05050134541699053	-0.13503789751967127	0.5680264827697311	0.04544025600104451	-0.1293142727693237	0.5453589506891051	0.03901008679265827	-0.12054810220713894	0.5093800110060729	0.020597835521239394	-0.10712644074505205	0.6052399194702484	0.04793215966549691	-0.11268395976950354	0.5885002010775872	0.04148366593415653	-0.11019422951679282	0.5613885343405094	0.03318295038693875	-0.10345144091400987	0.5215425711444015	0.01788945997089475	-0.09023946570707021	0.6069246013856773	0.040510141698923974	-0.09175898998068784	0.5906662693909527	0.033770882453077355	-0.08785398990814217	0.5675770681205927	0.02647738008949052	-0.08203388793573964	0.5307420070957795	0.011000719575359752	-0.075839366757421	0.6019145085080144	0.023616697844044632	-0.06285816906407969	0.5856588613819432	0.01840486521662721	-0.06159692476718935	0.5656252421532412	0.012186441250819136	-0.060703995329414465	0.5324143632316551	-0.0018584303067130659	-0.06151797026034159	0.4622830810018609	-0.023011742144276925	-0.051989820119430985
64	2.1666666666666576	0.49020257705700265	0.010300690775465138	-0.16467663609910377	0.48642859484526857	0.0013821896521302168	-0.14383875242588523	0.46607606529235324	-0.002661262383287233	-0.12063864388228165	0.46865821147373676	-0.020416925463499158	-0.07979799073275468	0.5840687667532073	0.05050846965720057	-0.13564502199888512	0.5676779433209306	0.045417458480554895	-0.12986380133096428	0.5450531004952464	0.03897373740258547	-0.1209978677206547	0.509111897027481	0.020728129359715797	-0.1072514582099983	0.6049987877443013	0.04775837402502059	-0.11338524870300223	0.5882482930489839	0.04138467661224443	-0.11077816052794656	0.5611443595469938	0.033196834843764234	-0.10386834244828351	0.5213283022889532	0.01807385769690939	-0.09037297036596814	0.6068313249631744	0.04033136739708665	-0.09232636367313071	0.5905575697784134	0.03369547209368273	-0.08831017322586224	0.5674581531662825	0.02654256723190218	-0.0823576205618762	0.530600690507112	0.011206869629701854	-0.07594944926409358	0.6018756247951506	0.023692910434632286	-0.0632752639429763	0.5856114479017815	0.018531658980959986	-0.06191952303366788	0.5655676109663919	0.012360597415883579	-0.06093229506225541	0.5323449557594994	-0.0016643418499463492	-0.061595401836256905	0.462283081001861	-0.023011742144276925	-0.051989820119430985
